<?xml version="1.0" encoding="utf-8"?>
<!-- Generator: Adobe Illustrator 22.0.1, SVG Export Plug-In . SVG Version: 6.00 Build 0)  -->
<svg version="1.1" id="Layer_1" xmlns="http://www.w3.org/2000/svg" xmlns:xlink="http://www.w3.org/1999/xlink" x="0px" y="0px"
	 viewBox="0 0 115.8 193.7" style="enable-background:new 0 0 115.8 193.7;" xml:space="preserve">
<style type="text/css">
	.st0{fill:#E1A957;}
</style>
<g transform="translate(1 1)">
	<g>
		<g>
			<path class="st0" d="M89.3,118.4H24.8c-5.2,0-9.7,4.2-9.7,9.7v38.7c0,5.2,4.2,9.7,9.7,9.7h64.6c5.2,0,9.7-4.5,9.7-9.7v-38.7
				C99,123,94.8,118.4,89.3,118.4z M92.6,166.8c0,1.6-1.3,3.2-3.2,3.2H24.8c-1.6,0-3.2-1.3-3.2-3.2v-38.7c0-1.6,1.3-3.2,3.2-3.2
				h64.6c1.6,0,3.2,1.3,3.2,3.2V166.8L92.6,166.8z"/>
			<path class="st0" d="M31.2,137.8h32.3c1.9,0,3.2-1.3,3.2-3.2c0-1.9-1.3-3.2-3.2-3.2H31.2c-1.9,0-3.2,1.3-3.2,3.2
				C28,136.5,29.3,137.8,31.2,137.8z"/>
			<path class="st0" d="M82.9,131.4h-6.5c-1.9,0-3.2,1.3-3.2,3.2c0,1.9,1.3,3.2,3.2,3.2h6.5c1.9,0,3.2-1.3,3.2-3.2
				C86.1,132.6,84.8,131.4,82.9,131.4z"/>
			<path class="st0" d="M31.2,150.7h6.5c1.9,0,3.2-1.3,3.2-3.2c0-1.9-1.3-3.2-3.2-3.2h-6.5c-1.9,0-3.2,1.3-3.2,3.2
				C28,149.4,29.3,150.7,31.2,150.7z"/>
			<path class="st0" d="M82.9,144.3H50.6c-1.9,0-3.2,1.3-3.2,3.2s1.3,3.2,3.2,3.2h32.3c1.9,0,3.2-1.3,3.2-3.2S84.8,144.3,82.9,144.3
				z"/>
			<path class="st0" d="M57,157.2H31.2c-1.9,0-3.2,1.3-3.2,3.2s1.3,3.2,3.2,3.2H57c1.9,0,3.2-1.3,3.2-3.2S59,157.2,57,157.2z"/>
			<path class="st0" d="M82.9,157.2H70c-1.9,0-3.2,1.3-3.2,3.2s1.3,3.2,3.2,3.2h12.9c1.9,0,3.2-1.3,3.2-3.2S84.8,157.2,82.9,157.2z"
				/>
			<path class="st0" d="M114.8,178.5v-48.4c0-22.9-2.9-45.8-8.4-68.1c-2.9-12-4.5-24.6-4.5-36.8v-8.5c0.2-0.5,0.3-0.9,0.3-1.5V2.2
				c0-1.9-1.3-3.2-3.2-3.2h-32h-0.4h-19c0,0-0.1,0-0.2,0c0,0-0.1,0-0.2,0H15.1c-1.9,0-3.2,1.3-3.2,3.2v12.9v10
				c0,12.3-1.6,24.9-4.5,36.5C1.9,83.9-1,106.8-1,129.7v48.4c0,8.1,6.5,14.5,14.5,14.5h87.2C108.7,192.7,115.1,186.2,114.8,178.5z
				 M95.8,11.9H70.3V5.5h25.5V11.9z M63.5,13.6c-0.2,0.5-0.3,0.9-0.3,1.5v26.6l-3.2-5.6c-0.6-1-1.6-1.6-2.9-1.6s-2.3,0.6-2.9,1.6
				l-3.6,6.1V15.2V5.5h12.9L63.5,13.6L63.5,13.6z M18.3,5.5h25.8v6.5H18.3V5.5z M109,178.2c0,4.5-3.6,8.1-8.1,8.1H13.5
				c-4.5,0-8.1-3.6-8.1-7.8V130c0-22.6,2.9-44.9,8.1-66.5c3.2-12.6,4.8-25.5,4.8-38.4v-6.8h26.1v35.2c0,1.6,1,2.9,2.3,3.2
				c1.3,0.6,2.9,0,3.6-1.3L57,43.9l6.8,11.6c0.6,0.9,1.7,1.5,2.6,1.6c0.5,0.1,1.1,0.2,1.6,0c1.3-0.6,2.3-1.9,2.3-3.2V18.4h25.8v6.5
				c0,12.9,1.6,25.8,4.8,38.4c5.2,21.6,8.1,44.2,8.1,66.5V178.2L109,178.2z"/>
		</g>
	</g>
</g>
<path class="st0" d="M94.6,57.8C79.9,57.8,66.5,66,59.7,79c-1.1-3.8-2.8-7.5-5-10.7c-0.9-1.4-2.8-1.8-4.2-0.8
	c-1.4,0.9-1.8,2.8-0.8,4.2c3.3,5,5.2,10.7,5.5,16.7C48,76.9,35.4,69.9,22,69.9c-1.7,0-3,1.4-3,3c0,20.5,15.9,37.6,36.3,39.2v6.2
	c0,1.7,1.4,3,3,3c1.7,0,3-1.4,3-3V100c20.5-1.6,36.3-18.6,36.3-39.2C97.6,59.2,96.2,57.8,94.6,57.8z M25.1,76.1
	c15.9,1.6,28.4,14.1,30,30C39.2,104.5,26.7,92,25.1,76.1z M61.4,94c1.6-15.9,14.1-28.4,30-30C89.8,79.9,77.3,92.4,61.4,94z"/>
</svg>
