<?xml version="1.0" encoding="utf-8"?>
<!-- Generator: Adobe Illustrator 22.0.1, SVG Export Plug-In . SVG Version: 6.00 Build 0)  -->
<svg version="1.1" id="Layer_1" xmlns="http://www.w3.org/2000/svg" xmlns:xlink="http://www.w3.org/1999/xlink" x="0px" y="0px"
	 viewBox="0 0 37.2 37.2" style="enable-background:new 0 0 37.2 37.2;" xml:space="preserve">
<style type="text/css">
	.st0{fill:none;stroke:#212020;stroke-width:1.44;stroke-linecap:round;stroke-linejoin:round;stroke-miterlimit:22.9256;}
</style>
<path class="st0" d="M28.2,23.4l7.4-7.4c1.3-1.3,0.8-2.6-0.1-3.5l-11-11c-0.8-0.8-2.2-1-3.4,0.1L7.8,14.8"/>
<path class="st0" d="M15,18.4l-0.6,8.2c0,0.3,0.2,0.6,0.5,0.6l13,1.3c0.3,0,1.1-3.4,1.6-3.8L15,18.4L15,18.4z"/>
<path class="st0" d="M15.1,18.5l-6.4,4.3c-0.2,0.1-0.5,0.2-0.6,0l-3-6.4c-0.1-0.2-0.1-0.4,0-0.6l1.4-1.4L15.1,18.5L15.1,18.5z"/>
<path class="st0" d="M23.5,28.6l-7.1,7.1c-0.8,0.8-2.4,1.1-3.4,0.1L1.3,24.1c-0.8-0.8-0.9-2.5,0-3.4l3.9-3.9"/>
<path class="st0" d="M28.6,14.1l1.8,1.8c0.2,0.2,0.5,0.2,0.6,0l1.8-1.8"/>
<path class="st0" d="M24.5,10l1.8,1.8c0.2,0.2,0.5,0.2,0.6,0l1.8-1.8"/>
<path class="st0" d="M20.4,5.9l1.8,1.8c0.2,0.2,0.5,0.2,0.6,0l1.8-1.8"/>
<path class="st0" d="M24.8,18.2l1.8,1.8c0.2,0.2,0.5,0.2,0.6,0l1.8-1.8"/>
<path class="st0" d="M20.7,14.1l1.8,1.8c0.2,0.2,0.5,0.2,0.6,0l1.8-1.8"/>
<path class="st0" d="M16.6,10l1.8,1.8c0.2,0.2,0.5,0.2,0.6,0l1.8-1.8"/>
<path class="st0" d="M12.8,14.1l1.8,1.8c0.2,0.2,0.5,0.2,0.6,0l1.8-1.8"/>
<path class="st0" d="M16.9,18.1l1.8,1.8c0.2,0.2,0.5,0.2,0.6,0l1.8-1.8"/>
</svg>
