<?xml version="1.0" encoding="utf-8"?>
<!-- Generator: Adobe Illustrator 22.0.1, SVG Export Plug-In . SVG Version: 6.00 Build 0)  -->
<svg version="1.1" id="Layer_1" xmlns="http://www.w3.org/2000/svg" xmlns:xlink="http://www.w3.org/1999/xlink" x="0px" y="0px"
	 viewBox="0 0 36 36" style="enable-background:new 0 0 36 36;" xml:space="preserve">
<style type="text/css">
	.st0{fill:none;stroke:#212020;stroke-width:1.44;stroke-linecap:round;stroke-linejoin:round;stroke-miterlimit:22.9256;}
	.st1{fill-rule:evenodd;clip-rule:evenodd;fill:none;stroke:#212020;stroke-miterlimit:10;}
</style>
<path class="st0" d="M18.3,7L7.2,18c-0.8,0.8-0.7,2.1,0.1,3l7.7,7.7c0.9,0.9,2.2,0.9,3,0.1l11.1-11.1c0.8-0.8,0.7-2.1-0.1-3
	l-7.7-7.7C20.4,6.2,19,6.2,18.3,7L18.3,7z"/>
<path class="st0" d="M26.1,11.9c3.1-0.5,6.1-1,9.2-1.5c-0.8-0.8-1-2.2-1.8-3.1C32.7,6.6,30.8,6.9,30,6c-0.8-0.8-0.5-2.7-1.3-3.5
	c-0.8-0.8-2.2-1-3.1-1.8L24,9.8"/>
<path class="st0" d="M25.6,10.8c1.2-0.7,4.2-1.5,5.4-2.2"/>
<line class="st0" x1="27.3" y1="6.7" x2="25.2" y2="10.4"/>
<path class="st0" d="M9.9,24.1c-3.1,0.5-6.1,1-9.2,1.5c0.8,0.8,1,2.2,1.8,3.1C3.3,29.5,5.2,29.2,6,30c0.8,0.8,0.5,2.7,1.3,3.5
	c0.8,0.8,2.2,1,3.1,1.8l1.6-9.1"/>
<path class="st0" d="M10.9,25.2c-1.2,0.7-4.2,1.5-5.4,2.2"/>
<line class="st0" x1="9.2" y1="29.2" x2="11.3" y2="25.6"/>
<line class="st0" x1="13.1" y1="12.9" x2="28.7" y2="17.4"/>
<line class="st0" x1="7.3" y1="18.7" x2="22.9" y2="23.2"/>
<path class="st1" d="M17,17.8c0.1-0.5,0.6-0.7,1-0.6c0.5,0.1,0.8,0.6,0.7,1.1c-0.1,0.5-0.6,0.8-1,0.6C17.2,18.8,16.9,18.3,17,17.8
	L17,17.8z"/>
<path class="st1" d="M21.2,18.9c0.1-0.5,0.6-0.7,1-0.6c0.5,0.1,0.8,0.6,0.7,1.1c-0.1,0.5-0.6,0.7-1,0.6
	C21.4,19.8,21.1,19.4,21.2,18.9L21.2,18.9z"/>
<path class="st1" d="M12.6,16.7c0.1-0.5,0.6-0.7,1-0.6c0.5,0.1,0.8,0.6,0.7,1.1c-0.1,0.5-0.6,0.7-1,0.6
	C12.8,17.7,12.5,17.2,12.6,16.7L12.6,16.7z"/>
</svg>
