<svg xmlns="http://www.w3.org/2000/svg" width="208" height="208" viewBox="0 0 208 208"><defs><clipPath id="p743a"><path fill="#fff" d="M104 0c57.438 0 104 46.562 104 104s-46.562 104-104 104S0 161.438 0 104 46.562 0 104 0z"/></clipPath></defs><g><g><path fill="transparent" d="M104 0c57.438 0 104 46.562 104 104s-46.562 104-104 104S0 161.438 0 104 46.562 0 104 0z"/><path fill="none" stroke="#f1eade" stroke-linecap="round" stroke-linejoin="round" stroke-miterlimit="20" stroke-opacity=".74" stroke-width="20" d="M104 0c57.438 0 104 46.562 104 104s-46.562 104-104 104S0 161.438 0 104 46.562 0 104 0z" clip-path="url(&quot;#p743a&quot;)"/></g><g><path fill="#e1a957" d="M104 32c39.764 0 72 32.235 72 72 0 39.764-32.236 72-72 72-39.765 0-72-32.236-72-72 0-39.765 32.235-72 72-72z"/></g></g></svg>