<?xml version="1.0" encoding="UTF-8" ?>
<!DOCTYPE svg PUBLIC "-//W3C//DTD SVG 1.1//EN" "http://www.w3.org/Graphics/SVG/1.1/DTD/svg11.dtd">
<svg width="24pt" height="30pt" viewBox="0 0 24 30" version="1.1" xmlns="http://www.w3.org/2000/svg">
<g id="#e0a957fe">
<path fill="#e0a957" opacity="1.00" d=" M 0.00 0.00 L 12.48 0.00 C 16.74 3.21 20.64 6.96 24.00 11.09 L 24.00 30.00 L 0.00 30.00 L 0.00 0.00 M 1.88 1.83 C 1.88 10.61 1.88 19.40 1.88 28.18 C 8.63 28.18 15.37 28.18 22.12 28.18 C 21.92 22.51 22.55 16.76 21.81 11.13 C 19.92 8.83 16.43 10.14 13.86 9.85 C 13.45 7.29 14.98 3.35 12.02 1.95 C 8.65 1.64 5.26 1.87 1.88 1.83 M 15.90 6.38 C 15.57 7.74 16.14 8.25 17.59 7.90 C 17.88 6.55 17.31 6.05 15.90 6.38 Z" />
<path fill="#e0a957" opacity="1.00" d=" M 3.93 13.56 C 9.14 13.31 14.75 12.60 19.76 13.83 L 19.23 14.96 C 14.49 15.10 9.71 15.24 4.98 14.88 L 3.93 13.56 Z" />
<path fill="#e0a957" opacity="1.00" d=" M 4.99 16.97 C 9.66 16.68 14.36 16.71 19.03 16.96 L 19.96 18.43 C 14.65 18.74 9.31 18.78 4.00 18.40 L 4.99 16.97 Z" />
<path fill="#e0a957" opacity="1.00" d=" M 3.98 20.56 C 9.31 20.16 14.70 20.14 20.03 20.57 L 19.01 21.96 C 14.35 22.26 9.64 22.24 4.98 21.96 L 3.98 20.56 Z" />
<path fill="#e0a957" opacity="1.00" d=" M 4.96 23.96 C 8.29 23.68 11.67 23.69 15.00 23.96 L 15.86 25.45 C 11.93 25.73 7.98 25.74 4.06 25.44 L 4.96 23.96 Z" />
</g>
</svg>
