<?xml version="1.0" encoding="utf-8"?>
<!-- Generator: Adobe Illustrator 22.0.1, SVG Export Plug-In . SVG Version: 6.00 Build 0)  -->
<svg version="1.1" id="Capa_1" xmlns="http://www.w3.org/2000/svg" xmlns:xlink="http://www.w3.org/1999/xlink" x="0px" y="0px"
	 viewBox="0 0 113.5 145.3" style="enable-background:new 0 0 113.5 145.3;" xml:space="preserve">
<style type="text/css">
	.st0{fill:#212020;}
</style>
<g>
	<g>
		<path class="st0" d="M112.2,116.5l-8.9-5.7V35.6C103.3,15.9,87.3,0,67.7,0S32.1,15.9,32.1,35.6v11L1.6,66.1
			c-1,0.5-1.6,1.5-1.6,2.5v66.7c0,2.6,1,5.1,2.9,7c1.9,1.9,4.4,2.9,7,2.9H60c5.5,0,9.9-4.4,9.9-9.9V68.6c0-1-0.5-1.9-1.3-2.4
			L37.9,46.6v-11C37.3,19.1,50.3,5.3,66.8,4.7s30.3,12.4,30.9,28.9c0,0.7,0,1.3,0,2v75.2l-8.7,5.5c-1,0.5-1.6,1.5-1.6,2.5v21.3
			c0,1.3,0.5,2.6,1.5,3.6c1,1,2.2,1.5,3.6,1.5h16c1.3,0,2.6-0.5,3.6-1.5c1-1,1.5-2.2,1.5-3.6v-21.3C113.5,117.9,113,117,112.2,116.5
			z M60,139.4H9.9c-1.1,0-2.2-0.4-3-1.2c-0.8-0.8-1.2-1.8-1.2-3V110c6.4,2.9,18.8,6.3,30.9-2.4c11.7-8.5,23.8-2.9,27.6-0.7l0.1,28.4
			C64.2,137.6,62.3,139.4,60,139.4z M37.9,69.9c3-1.6,4.2-5.3,2.6-8.3c-0.6-1.1-1.5-2-2.6-2.6v-5.6l26.3,16.8v30.2
			c-6.4-2.9-18.8-6.3-30.9,2.4c-11.7,8.5-23.8,2.9-27.6,0.7V70.2l26.4-16.9V59c-3,1.6-4.2,5.3-2.6,8.3
			C31.2,70.3,34.9,71.5,37.9,69.9z M107.8,139.4H93v-19l7.4-4.7l7.4,4.7V139.4z"/>
	</g>
</g>
</svg>
