<?xml version="1.0" encoding="utf-8"?>
<!-- Generator: Adobe Illustrator 22.0.1, SVG Export Plug-In . SVG Version: 6.00 Build 0)  -->
<svg version="1.1" id="Layer_1" xmlns="http://www.w3.org/2000/svg" xmlns:xlink="http://www.w3.org/1999/xlink" x="0px" y="0px"
	 viewBox="0 0 211 211" style="enable-background:new 0 0 211 211;" xml:space="preserve">
<style type="text/css">
	.st0{fill:#212020;}
</style>
<g id="surface1">
	<path class="st0" d="M2.4,144l3.8,1.3c18.1,6,34.9,15.2,49.7,27.1l29.8,23.8c0.2,0.1,0.4,0.3,0.6,0.4l0,0l12.1,6.1v8.4h7v-51
		l12.7-9.5l0,0c0.1-0.1,0.3-0.2,0.4-0.3c22.3-22.2,51.3-36.4,82.5-40.3l6.9-0.9c1.9-0.2,3.3-2,3.1-3.9c-0.2-1.3-1.1-2.4-2.3-2.9
		L179.4,92c-23.8-8.3-49.9,4.2-58.3,28.1c-0.2,0.4-0.3,0.9-0.4,1.3l-7.7,24.2l-7.5,5.7v-50.6c0-6.7,3.4-13.1,9-16.8l0-0.1
		c0.2-0.1,0.4-0.2,0.6-0.4c14.1-14.1,21.5-33.7,20.3-53.6l-1.7-26.5c-0.1-1.7-1.4-3-3-3.3c-1.7-0.2-3.2,0.7-3.8,2.3l-11.4,31.8
		c-4.3,11.9-6.4,24.4-6.4,37.1v7.9c-6.7,5.1-10.5,13.1-10.6,21.5v7l-3.6-3.6c-0.6-26.2-17.6-49.1-42.4-57.4l-23.3-7.7
		c-1.8-0.6-3.8,0.4-4.5,2.2c-0.2,0.6-0.2,1.3-0.1,1.9l3.9,17.5c6.2,28.5,31.5,48.7,60.6,48.6H90l8.5,8.5v77.3l-7-3.5V184
		c0-30.4-24.6-55-55-55c-5.9,0-11.8,1-17.4,2.8l-16.6,5.5c-1.8,0.6-2.9,2.6-2.2,4.4C0.5,142.8,1.4,143.7,2.4,144L2.4,144z
		 M127.4,123.5c5.1-16.1,20-27,36.9-27.1c4.4,0,8.7,0.7,12.8,2.2l15.5,5.4c-25.5,4.6-49.4,15.7-69.3,32.3L127.4,123.5z M116.1,71.2
		c0-11.8,2-23.6,6-34.7l5.6-15.7l0.6,9.4c0.9,14.8-3.4,29.4-12.2,41.2V71.2z M35.5,58.9l-2.5-11.4l17.4,5.8
		c19.3,6.4,33.4,22.9,36.8,42.9L58.8,67.9l-5,5l28.8,28.8C59.3,98.9,40.4,81.7,35.5,58.9z M21.2,138.5c25.2-8.4,52.3,5.2,60.7,30.4
		c1.6,4.9,2.5,10,2.5,15.2v2.1l-24.1-19.3C46.5,155.8,31,147,14.5,140.8L21.2,138.5z"/>
</g>
</svg>
