<?xml version="1.0" encoding="utf-8"?>
<!-- Generator: Adobe Illustrator 22.0.1, SVG Export Plug-In . SVG Version: 6.00 Build 0)  -->
<svg version="1.1" id="Layer_1" xmlns="http://www.w3.org/2000/svg" xmlns:xlink="http://www.w3.org/1999/xlink" x="0px" y="0px"
	 viewBox="0 0 194.3 132.6" style="enable-background:new 0 0 194.3 132.6;" xml:space="preserve">
<style type="text/css">
	.st0{fill:#E1AA56;}
</style>
<g>
	<path class="st0" d="M82.1,29.5c-0.3,1-0.9,2.4-1.9,2.6c-0.6-0.4-1.3-2.3-1.5-3.2C79.8,29,80.3,29.6,82.1,29.5L82.1,29.5z
		 M77.1,25.9c0.3-1.5,2-1.2,1.8-2.7c-1-0.1-1.6,0.1-2.5,0.3c1.2-2.3,4.2-4.1,6.6-5.8c0.7-0.5,0.8-0.9,1.1-1.8c1.2-2.9,4.2-0.5,5.5-4
		c0.3-0.7,0.4-1.5,0.6-2.2c0.2-0.9-0.1-0.8,2-1.1c3.6-0.6,7.3-1,10.7,0.4c1,0.4,5.8,1.9,6.2,2.8c-1.3,0.4-5.1,0-5.9,0.9
		c0.3,0.2,0,0.1,0.4,0.2c0.8,0.2,5.8,0.3,8.8,2.2c1.5,1,3.6,2.8,4.2,5.6c-0.9,0-1.9-1.6-4.5-1.5c0.6,1.1,4.8,2.4,6.5,8.9
		c0.6,2.3-0.7,4.7-2.4,6.5c-0.8,0.8-3.3,2.3-4.7,2.7c0.2-0.7,0.8-1.7,1.1-3.1c0.2-1.3,0.3-2.8-0.2-4c-0.5,0.2-0.3,0-0.5,0.7
		c-1.9,5.5-5.4,7.8-13.3,9.1c-7.8,4.9-19.9,8-12.9,2.2l-1.2-6.8c-0.5-2.8,11.5-7.2,11.8-13C95,23,95,24.9,92.7,25.8
		c0.6-1.3,1.7-2,1.9-4.4c0-0.2,0-0.5,0-0.8c-0.5,0.4-1.2,0.8-2.1,1.1c-0.9,0.3-1.9,0.9-2.9,1.5c-0.7,0.4-0.7,0.8-0.1,1.3
		c0.5,0.4,0.4,0.8,0,1.1c-1.2,0.2-1.9,0.7-2.1,1.6c-0.5,1.7-1.5,2.6-2.9,2.7c-2.4-0.6-4.2-1.4-5.6-2.4C77.9,26.8,77.2,26,77.1,25.9
		L77.1,25.9z M111.7,45.4c-0.5,1-1.3,1.5-1.9,1.8c-0.7,0.3-1.3,0.3-1.8,0.3c-0.5,0-0.9-0.1-1.1-0.2c-0.2-0.1-0.3-0.2-0.3-0.2
		s0.1,0,0.4,0c0.2,0,0.6-0.1,1-0.3c0.4-0.2,0.8-0.4,1.2-0.8c0.4-0.4,0.7-0.8,0.7-1.3c0-0.1,0-0.4-0.1-0.6l-0.1-0.2
		c0,0-0.1-0.1-0.1-0.1c0-0.1-0.1-0.1-0.2-0.2c-0.2-0.1-0.8-0.2-1.6,0c-0.8,0.1-1.6,0.4-2.6,0.7c-1.1,0.3-1.9,0.5-2.8,0.8
		c-1.8,0.6-3.7,1.4-5.5,2c-0.9,0.3-1.8,0.6-2.7,0.8c-0.9,0.2-1.8,0.3-2.6,0.4c-0.4,0-0.8,0-1.2,0c-0.4,0-0.7,0-1-0.1
		c-0.7-0.1-1.2-0.3-1.7-0.4c-0.4-0.1-0.8-0.3-1-0.4c-0.2-0.1-0.3-0.2-0.3-0.2s0.1,0,0.4,0c0.2,0,0.6,0,1.1-0.1
		c0.4-0.1,0.9-0.1,1.5-0.2c0.3,0,0.6-0.1,0.9-0.2c0.3-0.1,0.6-0.2,1-0.3c0.3-0.1,0.7-0.2,1.1-0.4c0.4-0.1,0.7-0.3,1.1-0.5
		c0.8-0.3,1.6-0.7,2.4-1.1c0.8-0.4,1.7-0.8,2.6-1.3c0.9-0.4,1.9-0.8,2.9-1.2c1-0.3,2.2-0.6,3-0.8c1-0.2,2-0.4,3.2-0.5
		c0.6,0,1.2,0,1.8,0.2c0.6,0.1,1.3,0.5,1.8,1c0.2,0.3,0.5,0.6,0.5,0.9l0.2,0.5c0,0.1,0,0.3,0.1,0.4C112,44.2,111.9,44.8,111.7,45.4
		L111.7,45.4z M97.6,56.3c14.7,0,26.7-12,26.7-26.7c0-14.7-11.9-26.7-26.7-26.7c-14.7,0-26.7,12-26.7,26.7
		C70.9,44.3,82.9,56.3,97.6,56.3L97.6,56.3z"/>
	<path class="st0" d="M84.8,16.7C84.8,16.7,84.8,16.8,84.8,16.7c0,0.1,0,0.2,0,0.2c0.1,1.6-0.4,1.1-0.6,2.2c1-0.1,4.2-1.9,4.9-2.5
		C88,16.1,86.1,16.2,84.8,16.7L84.8,16.7z"/>
	<path class="st0" d="M99.3,22.8c0.2,1.5-0.5,2.5-0.4,3.2c1.2-0.2,2.1-1.6,2.1-1.7c0-0.1,0-0.1,0.1-0.1c2.1,4.6-9.2,8.8-8.6,15.5
		c1.3-0.7,1.3-2.7,6.1-5c2.8-1.4,4.7-2.8,6.3-4.8c3.3-3.9,0.6-8-2.6-10.9l-2.8-2.5c2,0.2,4.4,2.2,5.6,3.2c1,0.9,2.3,2.5,3,3.8
		c0.3,0.6,0.3,1,0.9,1.3c-0.1-3.9-2.3-6.9-4.3-8.4c-3.9-2.8-7-2.4-8.4-3c0.9-2,3-2,5.4-2.5c-1.6-2.2-11.9,0.6-7.4,4.8
		C95.9,17.2,98.8,18.9,99.3,22.8L99.3,22.8z"/>
	<path class="st0" d="M38.2,75.4h1.3c0.7,0,1.2,0.1,1.7,0.3c0.4,0.2,0.8,0.5,1.1,0.9c0.3,0.4,0.4,0.8,0.6,1.3c0.1,0.5,0.2,1,0.2,1.5
		c0,0.2,0,0.4,0,0.6c0,0.3-0.1,0.5-0.2,0.8c-0.1,0.3-0.2,0.6-0.3,0.8c-0.1,0.3-0.3,0.5-0.5,0.8c-0.2,0.2-0.5,0.4-0.8,0.5
		c-0.3,0.1-0.7,0.2-1.1,0.2c-0.2,0-0.3,0-0.5,0c-0.2,0-0.3,0-0.5,0c-0.2,0-0.3,0-0.5-0.1c-0.2,0-0.3-0.1-0.4-0.1V75.4L38.2,75.4z
		 M38.4,90.4c-0.1-0.1-0.2-0.3-0.2-0.5v-6.1c0.2,0.1,0.4,0.2,0.6,0.3c0.2,0.1,0.5,0.2,0.7,0.3c0.2,0.1,0.5,0.1,0.7,0.2
		c0.2,0.1,0.4,0.1,0.6,0.1c0.8,0,1.6-0.1,2.4-0.4c0.7-0.3,1.4-0.7,1.9-1.2c0.5-0.5,1-1.1,1.3-1.9c0.3-0.7,0.5-1.6,0.5-2.5
		c0-0.9-0.2-1.6-0.5-2.2c-0.4-0.6-0.9-1.1-1.5-1.5c-0.6-0.4-1.4-0.7-2.2-0.9c-0.8-0.2-1.7-0.3-2.7-0.3h-7.8v0.8l1.7,0.5
		c0.2,0.1,0.3,0.1,0.5,0.3c0.1,0.1,0.2,0.3,0.2,0.5v13.9c0,0.2-0.1,0.4-0.2,0.5c-0.1,0.1-0.3,0.2-0.5,0.3l-1.7,0.5V92h8.5v-0.8
		l-1.9-0.5C38.6,90.7,38.5,90.6,38.4,90.4L38.4,90.4z"/>
	<path class="st0" d="M48.3,90.4c-0.1,0.1-0.3,0.2-0.4,0.3l-1.7,0.5V92h15.5v-5.1h-0.9l-1,3.2c0,0.1-0.1,0.3-0.2,0.3
		c-0.1,0.1-0.2,0.1-0.4,0.1h-7.1v-7.2H56c0.2,0,0.3,0,0.4,0.1c0.1,0.1,0.1,0.2,0.2,0.3l0.9,2.1h0.8v-6.6h-0.8l-0.9,2.1
		c0,0.1-0.1,0.2-0.2,0.3c-0.1,0.1-0.2,0.1-0.4,0.1h-3.8v-6.5h6c0.2,0,0.3,0,0.3,0.1c0.1,0.1,0.1,0.2,0.2,0.3l1.1,2.8h0.9V74H46.2
		v0.8l1.7,0.5c0.2,0.1,0.3,0.1,0.4,0.3c0.1,0.1,0.2,0.3,0.2,0.5v13.9C48.5,90.1,48.5,90.3,48.3,90.4L48.3,90.4z"/>
	<path class="st0" d="M69.7,75.4h1.5c1.1,0,1.9,0.3,2.5,0.9c0.6,0.6,0.9,1.5,0.9,2.8c0,0.5-0.1,0.9-0.2,1.4
		c-0.1,0.5-0.3,0.9-0.6,1.2c-0.3,0.4-0.6,0.6-1,0.9c-0.4,0.2-0.9,0.3-1.4,0.3c-0.1,0-0.2,0-0.4,0c-0.2,0-0.3,0-0.5,0
		c-0.2,0-0.3,0-0.5,0c-0.2,0-0.3,0-0.3,0V75.4L69.7,75.4z M71.4,84.4l5.7,8.7c0.2,0.3,0.4,0.6,0.5,0.8c0.2,0.2,0.3,0.4,0.5,0.5
		c0.2,0.1,0.4,0.2,0.7,0.3c0.3,0.1,0.6,0.1,1,0.1h5.7l1.5,0.1l0-0.1h0.1v-0.8l0,0l0,0c0,0,0,0-0.1,0l-2.9-0.3
		c-1.3-0.3-2.8-1-4.1-2.4l-1.1-1.6v0v0l-4.4-6.4c0.4-0.1,0.8-0.3,1.2-0.5c0.5-0.2,0.9-0.5,1.3-0.9c0.4-0.4,0.7-0.8,1-1.4
		c0.3-0.5,0.4-1.2,0.4-1.9c0-0.4,0-0.7-0.1-1.1c-0.1-0.4-0.2-0.7-0.4-1c-0.2-0.3-0.5-0.6-0.8-0.9c-0.3-0.3-0.8-0.5-1.3-0.7
		c-0.5-0.2-1.1-0.4-1.9-0.5C73.3,74,72.5,74,71.6,74h-7.9v0.8l1.7,0.5c0.2,0,0.3,0.1,0.4,0.3c0.1,0.1,0.2,0.3,0.2,0.5v13.9
		c0,0.2-0.1,0.4-0.2,0.5c-0.1,0.1-0.3,0.2-0.4,0.3l-1.7,0.5V92h8.5v-0.8l-1.9-0.5c-0.2,0-0.3-0.1-0.4-0.3c-0.1-0.1-0.1-0.3-0.1-0.5
		v-6L71.4,84.4L71.4,84.4z"/>
	<path class="st0" d="M95.7,88.8c0.3-0.7,0.4-1.4,0.4-2c0-0.6-0.1-1.2-0.3-1.7c-0.2-0.5-0.5-1-0.8-1.4c-0.3-0.4-0.7-0.7-1.1-1
		c-0.4-0.3-0.8-0.5-1.3-0.7c-0.4-0.1-0.7-0.3-1-0.4c-0.3-0.1-0.6-0.2-1-0.3c-0.3-0.1-0.6-0.2-0.9-0.3c-0.3-0.1-0.6-0.2-0.9-0.3
		c-0.4-0.2-0.8-0.3-1.1-0.5c-0.3-0.2-0.5-0.4-0.7-0.7c-0.2-0.2-0.3-0.5-0.4-0.8c-0.1-0.3-0.1-0.6-0.1-1c0-0.3,0.1-0.6,0.2-0.9
		c0.1-0.3,0.3-0.6,0.6-0.8c0.2-0.2,0.5-0.4,0.9-0.6c0.4-0.1,0.7-0.2,1.2-0.2c0.2,0,0.5,0,0.8,0.1c0.3,0,0.6,0.1,0.9,0.2
		c0.3,0.1,0.6,0.2,0.9,0.3c0.3,0.1,0.6,0.2,0.8,0.4c0.1,0.1,0.2,0.2,0.3,0.3c0.1,0.1,0.2,0.2,0.2,0.3l1,2.4h0.9v-4.7
		c-0.4-0.1-0.8-0.2-1.2-0.3c-0.4-0.1-0.9-0.2-1.4-0.3c-0.5-0.1-1-0.1-1.5-0.2c-0.5,0-1-0.1-1.6-0.1c-0.6,0-1.2,0.1-1.7,0.2
		c-0.6,0.1-1.1,0.3-1.6,0.5c-0.5,0.2-0.9,0.5-1.3,0.8c-0.4,0.3-0.7,0.7-1,1.1c-0.3,0.4-0.5,0.8-0.6,1.3c-0.2,0.5-0.2,0.9-0.2,1.4
		c0,0.5,0.1,1,0.2,1.5c0.1,0.5,0.4,0.9,0.6,1.3c0.3,0.4,0.6,0.8,1,1.1c0.4,0.3,0.9,0.6,1.4,0.8c0.3,0.1,0.6,0.2,1,0.3
		c0.3,0.1,0.6,0.2,1,0.3c0.3,0.1,0.7,0.2,1,0.3c0.3,0.1,0.7,0.2,1,0.3c0.4,0.2,0.7,0.3,1,0.5c0.3,0.2,0.5,0.4,0.7,0.6
		c0.2,0.2,0.3,0.5,0.4,0.8c0.1,0.3,0.1,0.6,0.1,0.9c0,0.4-0.1,0.8-0.2,1.2c-0.1,0.4-0.4,0.7-0.6,1c-0.3,0.3-0.6,0.5-1,0.7
		c-0.4,0.2-0.8,0.2-1.3,0.2c-0.3,0-0.6,0-0.9-0.1c-0.4-0.1-0.7-0.1-1.1-0.3c-0.4-0.1-0.8-0.3-1.2-0.4c-0.4-0.2-0.7-0.3-1.1-0.6
		c0,0-0.1-0.1-0.2-0.1c-0.1-0.1-0.1-0.1-0.2-0.2c-0.1-0.1-0.1-0.1-0.2-0.2c0-0.1-0.1-0.1-0.1-0.2l-1.2-2.6h-0.9l0.3,5.1
		c0.5,0.1,0.9,0.3,1.4,0.4c0.5,0.1,1,0.3,1.5,0.4c0.5,0.1,1,0.2,1.5,0.2c0.5,0.1,1,0.1,1.6,0.1c1.3,0,2.4-0.2,3.3-0.5
		c0.9-0.3,1.7-0.8,2.3-1.3C95,90.1,95.4,89.5,95.7,88.8L95.7,88.8z"/>
	<path class="st0" d="M111.6,86.4c-0.2,0.9-0.5,1.7-0.9,2.4c-0.4,0.7-0.9,1.2-1.4,1.6c-0.6,0.4-1.2,0.6-2,0.6
		c-0.9,0-1.6-0.2-2.2-0.6c-0.6-0.4-1.1-1-1.5-1.8c-0.4-0.8-0.7-1.6-0.9-2.7c-0.2-1-0.3-2.2-0.3-3.4c0-1,0.1-1.9,0.3-2.8
		c0.2-0.9,0.4-1.7,0.8-2.4c0.4-0.7,0.8-1.3,1.4-1.7c0.6-0.4,1.3-0.6,2.1-0.6c0.9,0,1.6,0.2,2.2,0.6c0.6,0.4,1.1,1,1.5,1.7
		c0.4,0.7,0.7,1.6,0.9,2.7c0.2,1,0.3,2.2,0.3,3.4C111.8,84.4,111.8,85.4,111.6,86.4L111.6,86.4z M111,74.3c-1.1-0.5-2.4-0.8-3.9-0.8
		c-1.4,0-2.6,0.2-3.7,0.7c-1.1,0.5-2,1.2-2.8,2c-0.8,0.8-1.3,1.8-1.7,3c-0.4,1.1-0.6,2.4-0.6,3.7c0,1.4,0.2,2.6,0.6,3.8
		c0.4,1.2,0.9,2.2,1.7,3c0.7,0.8,1.7,1.5,2.8,1.9c1.1,0.5,2.3,0.7,3.7,0.7c1,0,2-0.1,2.8-0.4c0.8-0.3,1.6-0.6,2.2-1.1
		c0.7-0.4,1.2-1,1.7-1.6c0.5-0.6,0.9-1.3,1.2-2c0.3-0.7,0.5-1.4,0.7-2.2c0.1-0.8,0.2-1.5,0.2-2.3c0-1.3-0.2-2.5-0.5-3.6
		c-0.4-1.1-0.9-2.1-1.6-3C113,75.5,112.1,74.8,111,74.3L111,74.3z"/>
	<path class="st0" d="M96.7,110.7c-0.4,0-0.4-0.3-0.4-0.6c0-1,0.6-2.3,1.1-3.2c0.9-1.5,1.9-2.8,2.8-2.8c0.1,0,0.1,0,0.1,0.1
		c0,0.5,0,1.1,0.1,1.5C100.3,107,98.1,110.7,96.7,110.7L96.7,110.7z M119.8,90.3c-0.1,0.1-0.3,0.2-0.4,0.3l-1.7,0.6V92h6.3v-0.8
		l-1.7-0.6c-0.2-0.1-0.4-0.2-0.5-0.3c-0.1-0.1-0.2-0.3-0.2-0.5v-3.2c0.3,0,0.5,0,0.8,0c1.4,0,2.2,1,2.3,1.6c0,0.3,0,0.5-0.1,0.9
		c0.1,0.1,0.2,0.1,0.3,0c0-0.6,0.3-2.3,0.3-2.7c0-0.5-0.1-1.4-1.7-1.4c-0.3,0-0.7,0.1-1.1,0.2c-0.3,0.1-0.5,0.2-0.8,0.3
		c-0.6,0-1.3,0.2-1.8,0.5v0.6c-2.1,1.6-4.2,4.1-5.8,6.4c-2.4,3.4-4.5,6.9-6.8,11.1c-1.3,0-2.9,0-3.6,0.2c-0.5,0.2-1.1,0.9-1.7,2.2
		c-0.3-0.5-0.3-1.1-0.3-1.8c0-0.9,0.3-1.7,0.6-2.2c0.1-0.2-0.1-0.3-0.2-0.2c-0.2,0.2-0.9,0.5-1.1,0.5c-0.4,0.1-0.6,0.7-0.7,1.1
		c-1.4,0.1-3.2,1.2-4.1,2.2c-0.9,1-2.1,2.8-2.1,4.5c0,0.8,0.4,1.1,1.2,1.1c0.5,0,1.3-0.3,1.8-0.7c1.7-1.1,3-3.1,3.6-4.6
		c0.4,0.8,1.4,1.1,2.2,1.1c1.3,0,2.3-0.9,3.2-1.9c0.2-0.2-0.1-0.3-0.2-0.1c-0.7,0.9-1.6,1.7-2.7,1.7c-0.5,0-0.8-0.2-1-0.5
		c0.9-1.8,2.1-2,5.1-2.2c-2,3.8-5.6,10.5-8.9,15.4c-6.2,9.2-11.6,11.6-15.8,11.6c-2.5,0-3.7-1.6-3.8-2.3c-0.1-0.2-0.2-0.3-0.2,0
		c0,1.9,1.4,3.5,2.6,3.5c4.4,0,11.5-3.9,18.3-12.6c2.7-3.5,6.8-9.9,9.7-15.6c1.7,0,4.6,0,5,0c0-0.1,0-0.2-0.1-0.3
		c-0.5,0-3.9,0-4.7,0c2-3.9,5-9.7,6.4-12.1c1.5-2.6,2.6-4.1,4.1-4.8v2.7C120,90,120,90.2,119.8,90.3L119.8,90.3z"/>
	<path class="st0" d="M121.8,84v-6.2l1.4,2l8.6,12.3h2.1l0.4-3.1V76.1c0-0.2,0.1-0.4,0.2-0.5c0.1-0.1,0.3-0.2,0.5-0.3l1.7-0.6V74
		h-6.3v0.8l1.7,0.6c0.2,0.1,0.4,0.2,0.5,0.3c0.1,0.1,0.2,0.3,0.2,0.5v11l-1.2-1.8L123.3,74h-5.7v0.8l1.8,0.5c0.2,0,0.3,0.1,0.4,0.3
		c0.1,0.1,0.2,0.3,0.2,0.5v8.4C120.6,83.7,121.3,83.7,121.8,84L121.8,84z"/>
	<path class="st0" d="M142.5,84.2l2.3-6.1l0.7,1.8l1.7,4.3H142.5L142.5,84.2z M147.4,92h7.9v-0.8l-1.2-0.5c-0.2-0.1-0.3-0.2-0.5-0.3
		c-0.1-0.1-0.3-0.3-0.3-0.5l-6.4-16.3h-1.6l-1.6,3L138.6,90c-0.1,0.4-0.4,0.6-0.8,0.8l-1.2,0.5V92h5.7v-0.8l-2.2-0.6l1.9-4.9h5.8
		l2,5l-2.3,0.6V92L147.4,92z"/>
	<path class="st0" d="M161.8,75.5c0.1-0.1,0.3-0.2,0.5-0.3l1.7-0.5V74h-8.4v0.8l1.7,0.5c0.2,0,0.3,0.1,0.4,0.3
		c0.1,0.1,0.2,0.3,0.2,0.5v13.9c0,0.2-0.1,0.4-0.2,0.5c-0.1,0.1-0.3,0.2-0.5,0.3l-1.7,0.5V92h14.8v-5.6h-0.9l-1.1,3.5
		c0,0.1,0,0.1-0.1,0.2c0,0.1-0.1,0.2-0.1,0.2c-0.1,0.1-0.1,0.1-0.2,0.2c-0.1,0-0.1,0.1-0.2,0.1h-6.3V76
		C161.7,75.8,161.7,75.7,161.8,75.5L161.8,75.5z"/>
	<path class="st0" d="M31.1,53.9c0.5,0.3,1,0.5,1.5,0.7c0.5,0.2,1.1,0.3,1.6,0.4c1.1,0.2,2.2,0.3,3.2,0.3c1.1,0,2.2-0.2,3.2-0.4
		c2.1-0.5,4.1-1.2,6-2.1c1.9-0.9,3.6-2,5.2-2.9c1.6-1,3.2-1.9,4.8-2.6c1.5-0.7,3.1-1.3,4.6-1.6c2.9-0.7,5.5-0.8,7.2-0.3
		c0.8,0.2,1.4,0.6,1.8,0.9c0.2,0.2,0.3,0.3,0.4,0.4c0,0,0.1,0.1,0.1,0.1c0,0,0,0,0,0l-0.2,0c-0.3,0-0.5-0.1-0.7-0.1
		c-1,0-1.9,0.2-2.8,0.4c-0.9,0.3-1.8,0.6-2.6,1.1c-0.8,0.5-1.6,1-2.3,1.6c-0.7,0.6-1.3,1.2-1.9,1.8c-0.6,0.6-1.2,1.1-1.7,1.5
		c-0.6,0.4-1.2,0.7-1.7,0.9c-0.6,0.2-1.1,0.3-1.6,0.3c-0.5,0-1-0.1-1.3-0.2c-0.3-0.2-0.5-0.4-0.6-0.6c-0.1-0.2,0-0.3,0-0.3
		c0,0-0.1,0.1-0.1,0.3c0,0.2,0.1,0.6,0.5,0.9c0.3,0.3,0.8,0.5,1.4,0.7c0.6,0.1,1.3,0.2,2,0c0.7-0.1,1.5-0.4,2.2-0.8
		c0.7-0.4,1.4-0.9,2.1-1.4c0.6-0.5,1.3-1.1,2-1.6c0.7-0.5,1.3-1,2.1-1.4c0.7-0.4,1.5-0.7,2.3-1c0.8-0.3,1.6-0.5,2.3-0.5
		c0.2,0,0.4,0,0.5,0l0.2,0l0.1,0l0.3,0c0.3,0.1,0.6,0.2,0.9,0.3c0.6,0.3,1.1,0.7,1.6,1.1c0.9,0.9,1.6,1.8,2.1,2.4
		c0.5,0.6,0.7,1,0.7,1s-0.1-0.4-0.4-1.2c-0.3-0.7-0.7-1.8-1.6-3c-0.4-0.6-1-1.2-1.7-1.6c-0.4-0.2-0.8-0.4-1.2-0.6L71,46.8
		c-0.1,0-0.1,0-0.2,0c0,0,0-0.1-0.1-0.1c-0.1-0.1-0.2-0.2-0.4-0.4c-0.3-0.3-0.9-0.8-1.8-1.2c-0.9-0.3-2-0.6-3.2-0.6
		c-1.3-0.1-2.7,0-4.3,0.3c-1.6,0.3-3.2,0.7-4.9,1.3c-1.7,0.7-3.4,1.5-5.1,2.4c-1.7,0.9-3.4,1.9-5.2,2.7c-1.8,0.8-3.7,1.5-5.6,1.9
		c-0.2,0-0.3,0.1-0.5,0.1c3.4-1.2,6.5-2.8,9.9-5c0.8-0.5,5.2-3.2,8.5-3.8L58,43.8c-3.3,0.6-7.5,3.1-8.7,3.8C45.4,50,42,51.8,38.1,53
		c-0.6,0.2-1.3,0.3-2,0.4c-0.5,0-1-0.1-1.5-0.2c-0.5-0.1-0.9-0.2-1.3-0.3c-0.4-0.1-0.8-0.3-1.2-0.5c-0.7-0.4-1.4-1-1.8-1.7
		c-0.9-1.4-0.6-3,0.4-4.2c1-1.2,2.5-1.9,3.7-1.7c0.6,0.1,1.1,0.5,1.5,0.9c0.4,0.5,0.5,1.1,0.5,1.6c0,1.1-0.7,2-1.4,2.4
		c-0.8,0.3-1.5,0.1-1.8-0.2C33,49,33,48.7,33,48.7c0,0-0.1,0.3,0.2,0.7c0.3,0.4,1.1,0.8,2,0.5c0.5-0.1,0.9-0.5,1.3-0.9
		c0.4-0.5,0.6-1.1,0.7-1.8c0.1-0.7-0.1-1.5-0.5-2.2c-0.4-0.7-1.2-1.3-2.1-1.5c-0.9-0.2-1.9-0.1-2.7,0.2c-0.2,0.1-0.4,0.2-0.6,0.3
		L31,44.3l-0.3,0.2c-0.4,0.3-0.8,0.6-1.1,1c-0.7,0.7-1.3,1.7-1.5,2.8c-0.2,1.1,0.1,2.3,0.6,3.3C29.3,52.5,30.2,53.3,31.1,53.9
		L31.1,53.9z"/>
	<path class="st0" d="M61.6,41c0.1,0.6,0.7,1,1.3,0.8c0.6-0.1,1-0.7,0.8-1.3c-0.1-0.6-0.7-1-1.3-0.8C61.9,39.9,61.5,40.4,61.6,41
		L61.6,41z"/>
	<path class="st0" d="M59.2,40.8c-0.5-0.3-0.9-0.5-1.1-0.7c-1.6-1.4-2.6-3.4-3.6-5.3c1.3,1.8,3.8,1.8,5.8,2.7c0.4,0.2,1,0.5,1.6,1
		c-0.4-1.3-1.8-2.6-2.7-3.2c-2.1-1.3-4.7-1.3-6.7-2.8c-0.1-0.1-0.2-0.2-0.3-0.2c1,1.7,1.2,3.9,2.2,5.6
		C55.3,39.1,57.3,40.6,59.2,40.8L59.2,40.8z"/>
	<path class="st0" d="M124.7,46.2c-0.2,0.2-0.3,0.3-0.4,0.4c0,0-0.1,0.1-0.1,0.1c-0.1,0-0.1,0-0.2,0l-0.3,0.1
		c-0.4,0.2-0.9,0.4-1.2,0.6c-0.8,0.5-1.3,1.1-1.7,1.6c-0.9,1.1-1.3,2.2-1.6,3c-0.3,0.7-0.4,1.2-0.4,1.2s0.3-0.4,0.7-1
		c0.5-0.6,1.1-1.5,2.1-2.4c0.5-0.4,1-0.8,1.6-1.1c0.3-0.1,0.6-0.2,0.9-0.3l0.3,0l0.1,0l0.2,0c0.1,0,0.3,0,0.5,0
		c0.7,0,1.5,0.2,2.3,0.5c0.8,0.3,1.5,0.6,2.3,1c0.7,0.4,1.4,0.9,2.1,1.4c0.7,0.6,1.3,1.1,2,1.6c0.7,0.5,1.4,1,2.1,1.4
		c0.8,0.4,1.5,0.7,2.2,0.8c0.7,0.1,1.4,0.1,2,0c0.6-0.1,1-0.4,1.4-0.7c0.3-0.3,0.5-0.6,0.5-0.9c0-0.2-0.1-0.3-0.1-0.3
		c0,0,0,0.1,0,0.3c-0.1,0.2-0.3,0.4-0.6,0.6c-0.3,0.1-0.8,0.2-1.3,0.2c-0.5,0-1.1-0.1-1.6-0.3c-0.6-0.2-1.2-0.5-1.7-0.9
		c-0.6-0.4-1.1-0.9-1.7-1.5c-0.6-0.6-1.2-1.2-1.9-1.8c-0.7-0.6-1.5-1.2-2.3-1.6c-0.8-0.5-1.7-0.8-2.6-1.1c-0.9-0.3-1.8-0.5-2.8-0.4
		c-0.2,0-0.5,0-0.7,0.1l-0.2,0c0,0,0,0,0,0c0,0,0.1-0.1,0.1-0.1C124.5,46.5,124.6,46.4,124.7,46.2c0.4-0.2,1-0.6,1.9-0.8
		c1.7-0.5,4.3-0.4,7.2,0.3c1.5,0.4,3,0.9,4.6,1.6c1.6,0.7,3.2,1.6,4.8,2.6c1.7,1,3.4,2,5.2,2.9c1.9,0.9,3.9,1.6,6,2.1
		c1.1,0.2,2.1,0.4,3.2,0.4c1.1,0,2.2-0.1,3.2-0.3c0.5-0.1,1.1-0.2,1.6-0.4c0.6-0.2,1.1-0.4,1.5-0.7c1-0.6,1.8-1.4,2.3-2.4
		c0.6-1,0.8-2.2,0.6-3.3c-0.2-1.1-0.8-2.1-1.5-2.8c-0.3-0.4-0.7-0.7-1.1-1l-0.3-0.2l-0.3-0.2c-0.2-0.1-0.4-0.2-0.6-0.3
		c-0.9-0.3-1.8-0.5-2.7-0.2c-0.9,0.2-1.6,0.8-2.1,1.5c-0.4,0.7-0.6,1.5-0.5,2.2c0.1,0.7,0.3,1.3,0.7,1.8c0.4,0.5,0.8,0.8,1.3,0.9
		c1,0.3,1.8-0.1,2-0.5c0.3-0.4,0.2-0.7,0.2-0.7c0,0,0,0.3-0.3,0.6c-0.3,0.4-1,0.6-1.8,0.2c-0.8-0.3-1.4-1.3-1.4-2.4
		c0-0.6,0.2-1.1,0.5-1.6c0.4-0.5,0.9-0.8,1.5-0.9c1.2-0.2,2.8,0.6,3.7,1.7c1,1.2,1.3,2.8,0.4,4.2c-0.4,0.7-1,1.3-1.8,1.7
		c-0.4,0.2-0.8,0.4-1.2,0.5c-0.4,0.2-0.9,0.2-1.3,0.3c-0.5,0.1-1,0.1-1.5,0.2c-0.7-0.1-1.4-0.2-2-0.4c-4-1.1-7.4-3-11.3-5.4
		c-1.2-0.7-5.4-3.2-8.7-3.8l-0.1,0.6c3.2,0.6,7.6,3.2,8.5,3.8c3.4,2.1,6.5,3.8,9.9,5c-0.2,0-0.3,0-0.5-0.1c-1.9-0.4-3.8-1.1-5.6-1.9
		c-1.8-0.8-3.5-1.8-5.2-2.7c-1.7-0.9-3.4-1.8-5.1-2.4c-1.7-0.7-3.3-1.1-4.9-1.3c-1.5-0.3-3-0.4-4.3-0.3c-1.3,0.1-2.4,0.3-3.2,0.6
		C125.6,45.4,125.1,45.8,124.7,46.2L124.7,46.2z"/>
	<path class="st0" d="M132.2,41.9c0.6,0.1,1.2-0.3,1.3-0.8c0.1-0.6-0.3-1.2-0.8-1.3c-0.6-0.1-1.2,0.3-1.3,0.8
		C131.2,41.2,131.6,41.7,132.2,41.9L132.2,41.9z"/>
	<path class="st0" d="M140.5,34.7c-1,1.9-2,3.9-3.6,5.3c-0.2,0.2-0.6,0.5-1.1,0.7c1.9-0.2,3.9-1.7,4.7-3c1-1.7,1.2-3.9,2.2-5.6
		c-0.1,0.1-0.2,0.2-0.3,0.2c-1.9,1.5-4.6,1.5-6.7,2.8c-0.9,0.6-2.3,1.9-2.7,3.2c0.6-0.5,1.3-0.8,1.6-1
		C136.8,36.5,139.3,36.5,140.5,34.7L140.5,34.7z"/>
	<path class="st0" d="M142.8,32.2c0.2-0.2,0.4-0.5,0.6-0.8C143.1,31.6,143,31.9,142.8,32.2L142.8,32.2z"/>
	<path class="st0" d="M97.6,1.4c15.6,0,28.2,12.7,28.2,28.2c0,15.6-12.7,28.2-28.2,28.2c-15.6,0-28.2-12.7-28.2-28.2
		C69.4,14,82.1,1.4,97.6,1.4L97.6,1.4z M97.6,59.2c16.3,0,29.6-13.3,29.6-29.6C127.2,13.3,113.9,0,97.6,0C81.3,0,68,13.3,68,29.6
		C68,45.9,81.3,59.2,97.6,59.2L97.6,59.2z"/>
	<path class="st0" d="M11.2,108.9c-0.3-0.4-0.6-0.7-1-0.9c-0.4-0.3-0.7-0.5-1.1-0.6c-0.3-0.1-0.6-0.2-0.9-0.3
		c-0.3-0.1-0.6-0.2-0.9-0.3c-0.3-0.1-0.6-0.2-0.8-0.2c-0.3-0.1-0.6-0.2-0.8-0.3c-0.4-0.1-0.7-0.3-1-0.5c-0.3-0.2-0.5-0.4-0.6-0.6
		c-0.2-0.2-0.3-0.5-0.4-0.7c-0.1-0.3-0.1-0.5-0.1-0.9c0-0.3,0.1-0.6,0.2-0.8c0.1-0.3,0.3-0.5,0.5-0.7c0.2-0.2,0.5-0.4,0.8-0.5
		c0.3-0.1,0.7-0.2,1.1-0.2c0.2,0,0.4,0,0.7,0c0.3,0,0.5,0.1,0.8,0.1c0.3,0.1,0.6,0.1,0.8,0.3c0.3,0.1,0.5,0.2,0.7,0.4
		c0.1,0.1,0.2,0.1,0.3,0.2c0.1,0.1,0.2,0.2,0.2,0.3l0.9,2.2h0.8v-4.2c-0.3-0.1-0.7-0.2-1.1-0.3c-0.4-0.1-0.8-0.2-1.2-0.2
		c-0.4-0.1-0.9-0.1-1.3-0.2c-0.5,0-0.9-0.1-1.4-0.1c-0.5,0-1,0.1-1.5,0.2c-0.5,0.1-1,0.3-1.4,0.5c-0.4,0.2-0.8,0.4-1.2,0.7
		c-0.3,0.3-0.6,0.6-0.9,1c-0.2,0.4-0.4,0.7-0.6,1.1c-0.1,0.4-0.2,0.8-0.2,1.3c0,0.5,0.1,0.9,0.2,1.3c0.1,0.4,0.3,0.8,0.6,1.2
		c0.2,0.4,0.5,0.7,0.9,1c0.4,0.3,0.8,0.5,1.3,0.7c0.3,0.1,0.6,0.2,0.9,0.3c0.3,0.1,0.6,0.2,0.9,0.3c0.3,0.1,0.6,0.2,0.9,0.3
		c0.3,0.1,0.6,0.2,0.9,0.3c0.4,0.1,0.7,0.3,0.9,0.5c0.3,0.2,0.5,0.3,0.6,0.5c0.2,0.2,0.3,0.4,0.4,0.7c0.1,0.2,0.1,0.5,0.1,0.8
		c0,0.4-0.1,0.7-0.2,1c-0.1,0.3-0.3,0.6-0.6,0.9c-0.2,0.2-0.5,0.4-0.9,0.6c-0.3,0.1-0.7,0.2-1.2,0.2c-0.2,0-0.5,0-0.8-0.1
		c-0.3-0.1-0.6-0.1-1-0.2c-0.4-0.1-0.7-0.2-1-0.4c-0.3-0.1-0.7-0.3-0.9-0.5c0,0-0.1-0.1-0.1-0.1c-0.1,0-0.1-0.1-0.2-0.2
		c-0.1-0.1-0.1-0.1-0.1-0.2c0-0.1-0.1-0.1-0.1-0.2l-1-2.3H0l0.3,4.5c0.4,0.1,0.8,0.3,1.3,0.4c0.4,0.1,0.9,0.2,1.3,0.3
		c0.4,0.1,0.9,0.2,1.3,0.2c0.5,0.1,0.9,0.1,1.4,0.1c1.2,0,2.2-0.1,3-0.4c0.8-0.3,1.5-0.7,2-1.2c0.5-0.5,0.9-1,1.2-1.6
		c0.2-0.6,0.4-1.2,0.4-1.8c0-0.6-0.1-1.1-0.3-1.5C11.7,109.7,11.5,109.3,11.2,108.9L11.2,108.9z"/>
	<path class="st0" d="M26.1,114.7c0,0.1-0.1,0.2-0.2,0.3c-0.1,0.1-0.2,0.1-0.3,0.1h-6.3v-6.4h3.4c0.2,0,0.3,0,0.3,0.1
		c0.1,0.1,0.1,0.2,0.2,0.3l0.8,1.9h0.7v-5.9H24l-0.8,1.9c0,0.1-0.1,0.2-0.2,0.3c-0.1,0.1-0.2,0.1-0.3,0.1h-3.4v-5.8h5.3
		c0.1,0,0.2,0,0.3,0.1c0.1,0.1,0.1,0.2,0.2,0.3l0.9,2.5h0.8v-4.2H14v0.7l1.5,0.4c0.2,0,0.3,0.1,0.4,0.3c0.1,0.1,0.2,0.3,0.2,0.4
		v12.4c0,0.2-0.1,0.3-0.2,0.4c-0.1,0.1-0.2,0.2-0.4,0.3l-1.5,0.4v0.7h13.8v-4.5H27L26.1,114.7L26.1,114.7z"/>
	<path class="st0" d="M42,113.6c-0.3,0.2-0.6,0.4-0.9,0.6c-0.3,0.2-0.7,0.3-1.2,0.5c-0.4,0.1-0.9,0.2-1.5,0.2
		c-0.9,0-1.6-0.2-2.3-0.5c-0.7-0.3-1.2-0.7-1.6-1.3c-0.4-0.6-0.8-1.3-1-2.2c-0.2-0.9-0.3-1.8-0.3-2.9c0-1.1,0.1-2,0.3-2.8
		c0.2-0.8,0.5-1.5,0.8-2.1c0.4-0.6,0.8-1,1.3-1.3c0.5-0.3,1.1-0.4,1.7-0.4c0.6,0,1.1,0.1,1.6,0.2c0.5,0.2,1,0.4,1.5,0.6
		c0.1,0.1,0.2,0.1,0.3,0.2c0.1,0.1,0.1,0.2,0.2,0.3l0.9,2h0.8v-3.9c-0.3-0.1-0.7-0.2-1.1-0.3c-0.4-0.1-0.9-0.2-1.4-0.3
		c-0.5-0.1-1-0.2-1.4-0.2c-0.5-0.1-0.9-0.1-1.3-0.1c-0.7,0-1.4,0.1-2.1,0.3c-0.7,0.2-1.3,0.4-1.9,0.8c-0.6,0.3-1.1,0.8-1.6,1.3
		c-0.5,0.5-0.9,1.1-1.2,1.7c-0.3,0.6-0.6,1.3-0.8,2c-0.2,0.7-0.3,1.5-0.3,2.4c0,1.3,0.2,2.5,0.5,3.5c0.4,1,0.9,1.9,1.5,2.6
		c0.7,0.7,1.5,1.3,2.4,1.7c1,0.4,2,0.6,3.2,0.6c0.6,0,1.2-0.1,1.7-0.2c0.6-0.2,1.1-0.4,1.6-0.6c0.5-0.2,1-0.5,1.4-0.8
		c0.4-0.3,0.8-0.6,1.1-0.8v-1.3h-0.5C42.5,113.1,42.2,113.4,42,113.6L42,113.6z"/>
	<path class="st0" d="M54,106c-0.1,0.4-0.3,0.8-0.5,1.1c-0.2,0.3-0.5,0.6-0.9,0.8c-0.4,0.2-0.8,0.3-1.2,0.3c-0.1,0-0.2,0-0.3,0
		c-0.1,0-0.3,0-0.5,0c-0.2,0-0.3,0-0.4,0c-0.1,0-0.2,0-0.3,0v-6.5h1.4c0.9,0,1.7,0.3,2.2,0.8c0.5,0.5,0.8,1.3,0.8,2.5
		C54.2,105.2,54.1,105.6,54,106L54,106z M59.1,115.1c-0.1-0.1-0.2-0.2-0.3-0.2c-0.1-0.1-0.2-0.2-0.3-0.3c-0.1-0.1-0.2-0.2-0.2-0.3
		l-3.9-5.8c0.3-0.1,0.7-0.3,1.1-0.5c0.4-0.2,0.8-0.5,1.1-0.8c0.3-0.3,0.6-0.7,0.9-1.2c0.2-0.5,0.4-1.1,0.4-1.7c0-0.3,0-0.6-0.1-1
		c-0.1-0.3-0.2-0.6-0.4-0.9c-0.2-0.3-0.4-0.6-0.7-0.8c-0.3-0.3-0.7-0.5-1.1-0.7c-0.5-0.2-1-0.3-1.7-0.4c-0.6-0.1-1.4-0.2-2.2-0.2h-7
		v0.7l1.5,0.4c0.1,0,0.3,0.1,0.4,0.2c0.1,0.1,0.2,0.3,0.2,0.5v12.4c0,0.2-0.1,0.3-0.2,0.4c-0.1,0.1-0.2,0.2-0.4,0.3l-1.5,0.4v0.7H52
		v-0.7l-1.7-0.4c-0.2,0-0.3-0.1-0.4-0.2c-0.1-0.1-0.1-0.3-0.1-0.4v-5.4l1.5,0.4l3.4,5.3c0.2,0.3,0.3,0.5,0.5,0.7
		c0.1,0.2,0.3,0.3,0.5,0.4c0.2,0.1,0.4,0.2,0.6,0.2c0.2,0.1,0.5,0.1,0.9,0.1h3.7v-0.7l-1.5-0.4C59.3,115.2,59.2,115.2,59.1,115.1
		L59.1,115.1z"/>
	<path class="st0" d="M73.1,114.7c0,0.1-0.1,0.2-0.2,0.3c-0.1,0.1-0.2,0.1-0.3,0.1h-6.3v-6.4h3.4c0.2,0,0.3,0,0.3,0.1
		c0.1,0.1,0.1,0.2,0.2,0.3l0.8,1.9h0.7v-5.9H71l-0.8,1.9c0,0.1-0.1,0.2-0.2,0.3c-0.1,0.1-0.2,0.1-0.3,0.1h-3.4v-5.8h5.3
		c0.1,0,0.2,0,0.3,0.1c0.1,0.1,0.1,0.2,0.2,0.3l0.9,2.5h0.8v-4.2H61v0.7l1.5,0.4c0.2,0,0.3,0.1,0.4,0.3c0.1,0.1,0.2,0.3,0.2,0.4
		v12.4c0,0.2-0.1,0.3-0.2,0.4c-0.1,0.1-0.2,0.2-0.4,0.3l-1.5,0.4v0.7h13.8v-4.5H74L73.1,114.7L73.1,114.7z"/>
	<path class="st0" d="M88.8,101.6c0.1,0,0.3,0,0.3,0.1c0.1,0.1,0.1,0.2,0.2,0.3l1,2.6H91v-4.3H76.4v4.3h0.8l1-2.6
		c0-0.1,0.1-0.2,0.2-0.3c0.1-0.1,0.2-0.1,0.3-0.1H82v13c0,0.2,0,0.3-0.1,0.4c-0.1,0.1-0.2,0.2-0.4,0.2l-1.7,0.4v0.7h7.8v-0.7
		l-1.7-0.4c-0.1,0-0.3-0.1-0.4-0.2c-0.1-0.1-0.2-0.3-0.2-0.4v-13H88.8L88.8,101.6z"/>
	<path class="st0" d="M120.6,104.4h0.8l0.9-2.5c0-0.1,0.1-0.2,0.2-0.3c0.1-0.1,0.2-0.1,0.3-0.1h3.3v12.6c0,0.2,0,0.3-0.1,0.4
		c-0.1,0.1-0.2,0.2-0.4,0.2l-1.7,0.4v0.7h7.6v-0.7l-1.7-0.4c-0.1,0-0.3-0.1-0.4-0.2c-0.1-0.1-0.2-0.3-0.2-0.4v-12.6h3.4
		c0.1,0,0.2,0,0.3,0.1c0.1,0.1,0.1,0.2,0.2,0.3l0.9,2.5h0.8v-4.1h-14.2V104.4L120.6,104.4z"/>
	<path class="st0" d="M140.1,109.2l2-5.3l0.6,1.5l1.5,3.8H140.1L140.1,109.2z M149.8,114.6c-0.1-0.1-0.2-0.3-0.3-0.4l-5.6-14.1h-1.4
		l-1.4,2.6l-4.5,11.5c-0.1,0.3-0.3,0.5-0.7,0.7l-1,0.4v0.7h4.9v-0.7l-1.9-0.5l1.6-4.3h5l1.7,4.3l-2,0.5v0.7h6.8v-0.7l-1-0.4
		C150,114.8,149.9,114.7,149.8,114.6L149.8,114.6z"/>
	<path class="st0" d="M162.6,108.7c-0.3-0.3-0.6-0.6-1-0.9c-0.4-0.2-0.7-0.4-1.1-0.6c-0.3-0.1-0.6-0.2-0.9-0.3
		c-0.3-0.1-0.6-0.2-0.8-0.3c-0.3-0.1-0.5-0.2-0.8-0.2c-0.3-0.1-0.5-0.2-0.8-0.3c-0.4-0.1-0.7-0.3-0.9-0.5c-0.3-0.2-0.5-0.4-0.6-0.6
		c-0.2-0.2-0.3-0.5-0.3-0.7c-0.1-0.3-0.1-0.5-0.1-0.8c0-0.3,0.1-0.5,0.2-0.8c0.1-0.3,0.3-0.5,0.5-0.7c0.2-0.2,0.5-0.4,0.8-0.5
		c0.3-0.1,0.6-0.2,1-0.2c0.2,0,0.4,0,0.7,0c0.3,0,0.5,0.1,0.8,0.1c0.3,0.1,0.5,0.1,0.8,0.2c0.3,0.1,0.5,0.2,0.7,0.4
		c0.1,0.1,0.2,0.1,0.3,0.2c0.1,0.1,0.2,0.2,0.2,0.3l0.9,2.1h0.8v-4.1c-0.3-0.1-0.7-0.2-1-0.3c-0.4-0.1-0.8-0.2-1.2-0.2
		c-0.4-0.1-0.8-0.1-1.3-0.2c-0.5,0-0.9-0.1-1.4-0.1c-0.5,0-1,0.1-1.5,0.2c-0.5,0.1-0.9,0.3-1.3,0.5c-0.4,0.2-0.8,0.4-1.1,0.7
		c-0.3,0.3-0.6,0.6-0.9,0.9c-0.2,0.3-0.4,0.7-0.6,1.1c-0.1,0.4-0.2,0.8-0.2,1.2c0,0.5,0.1,0.9,0.2,1.3c0.1,0.4,0.3,0.8,0.5,1.2
		c0.2,0.4,0.5,0.7,0.9,1c0.4,0.3,0.8,0.5,1.2,0.7c0.3,0.1,0.6,0.2,0.8,0.3c0.3,0.1,0.6,0.2,0.8,0.2c0.3,0.1,0.6,0.2,0.9,0.2
		c0.3,0.1,0.6,0.2,0.9,0.3c0.3,0.1,0.6,0.3,0.9,0.4c0.2,0.2,0.5,0.3,0.6,0.5c0.2,0.2,0.3,0.4,0.4,0.7c0.1,0.2,0.1,0.5,0.1,0.8
		c0,0.4-0.1,0.7-0.2,1c-0.1,0.3-0.3,0.6-0.6,0.8c-0.2,0.2-0.5,0.4-0.9,0.6c-0.3,0.1-0.7,0.2-1.2,0.2c-0.2,0-0.5,0-0.8-0.1
		c-0.3-0.1-0.6-0.1-1-0.2c-0.3-0.1-0.7-0.2-1-0.4c-0.3-0.1-0.6-0.3-0.9-0.5c0,0-0.1-0.1-0.1-0.1c-0.1,0-0.1-0.1-0.1-0.2
		c0-0.1-0.1-0.1-0.1-0.2c0-0.1-0.1-0.1-0.1-0.2l-1-2.3h-0.8l0.3,4.4c0.4,0.1,0.8,0.3,1.2,0.4c0.4,0.1,0.8,0.2,1.3,0.3
		c0.4,0.1,0.9,0.2,1.3,0.2c0.4,0.1,0.9,0.1,1.3,0.1c1.1,0,2.1-0.1,2.9-0.4c0.8-0.3,1.5-0.7,2-1.1c0.5-0.5,0.9-1,1.1-1.6
		c0.2-0.6,0.4-1.2,0.4-1.8c0-0.6-0.1-1.1-0.3-1.5C163.1,109.4,162.9,109,162.6,108.7L162.6,108.7z"/>
	<path class="st0" d="M165.2,104.4h0.8l0.9-2.5c0-0.1,0.1-0.2,0.2-0.3c0.1-0.1,0.2-0.1,0.3-0.1h3.3v12.6c0,0.2,0,0.3-0.1,0.4
		c-0.1,0.1-0.2,0.2-0.4,0.2l-1.7,0.4v0.7h7.6v-0.7l-1.7-0.4c-0.1,0-0.3-0.1-0.4-0.2c-0.1-0.1-0.2-0.3-0.2-0.4v-12.6h3.4
		c0.1,0,0.2,0,0.3,0.1c0.1,0.1,0.1,0.2,0.2,0.3l0.9,2.5h0.8v-4.1h-14.2V104.4L165.2,104.4z"/>
	<path class="st0" d="M193.6,111.5l-0.9,2.7c0,0.1-0.1,0.2-0.2,0.3c-0.1,0.1-0.2,0.1-0.3,0.1h-6.1v-6.3h3.3c0.1,0,0.3,0,0.3,0.1
		c0.1,0.1,0.1,0.2,0.2,0.3l0.8,1.8h0.7v-5.7h-0.7l-0.8,1.9c0,0.1-0.1,0.2-0.2,0.3c-0.1,0.1-0.2,0.1-0.3,0.1h-3.3v-5.6h5.2
		c0.1,0,0.2,0,0.3,0.1c0.1,0.1,0.1,0.2,0.2,0.3l0.9,2.4h0.8v-4.1h-12.5v0.7l1.4,0.4c0.2,0,0.3,0.1,0.4,0.2c0.1,0.1,0.2,0.3,0.2,0.4
		v12.1c0,0.2,0,0.3-0.2,0.4c-0.1,0.1-0.2,0.2-0.4,0.2l-1.4,0.4v0.7h13.5v-4.4H193.6L193.6,111.5z"/>
</g>
</svg>
